<svg id="Layer_1" enable-background="new 0 0 512 512" height="512" viewBox="0 0 512 512" width="512" xmlns="http://www.w3.org/2000/svg"><g><path d="m215.833 512c-57.081 0-103.367-46.184-103.367-103.366v-40.167c0-8.284 6.716-15 15-15s15 6.716 15 15v40.167c0 40.515 32.78 73.366 73.367 73.366 40.455 0 73.367-32.912 73.367-73.366v-152.634c0-43.708 35.559-79.267 79.267-79.267s79.267 35.559 79.267 79.267v112.467c0 8.284-6.716 15-15 15s-15-6.716-15-15v-112.467c0-27.166-22.101-49.267-49.267-49.267s-49.267 22.101-49.267 49.267v152.634c0 56.996-46.37 103.366-103.367 103.366z" fill="#326eb4"/><path d="m15 206.733c-8.284 0-15-6.716-15-15v-112.482c0-34.89 28.23-63.185 63.184-63.185 8.284 0 15.008 6.716 15.008 15s-6.708 15-14.992 15c-18.371 0-33.2 14.855-33.2 33.185v112.482c0 8.285-6.716 15-15 15z" fill="#3c3c37"/><path d="m239.933 206.733c-8.284 0-15-6.716-15-15v-112.482c0-18.33-14.834-33.185-33.184-33.185-8.284 0-15.008-6.716-15.008-15s6.708-15 14.992-15c34.901 0 63.2 28.217 63.2 63.185v112.482c0 8.285-6.716 15-15 15z" fill="#141e14"/><path d="m127.467 383.467c-70.389 0-127.467-56.95-127.467-127.467v-64.267c0-8.284 6.716-15 15-15 42.971 0 79.267 34.706 79.267 79.251v.016c0 18.379 14.876 33.2 33.2 33.2 18.306 0 33.2-14.803 33.2-33.2 0-43.77 35.396-79.267 79.251-79.267 8.284 0 15.016 6.716 15.016 15v64.267c-.001 70.39-56.952 127.467-127.467 127.467z" fill="#5ac3dc"/><circle cx="432.733" cy="432.733" fill="#aadce6" r="79.267"/><path d="m63.2 62.134c-8.284 0-15-6.716-15-15v-32.134c0-8.284 6.716-15 15-15s15 6.716 15 15v32.134c0 8.284-6.716 15-15 15z" fill="#64645a"/><path d="m191.733 62.134c-8.284 0-15-6.716-15-15v-32.134c0-8.284 6.716-15 15-15s15 6.716 15 15v32.134c0 8.284-6.715 15-15 15z" fill="#3c3c37"/><path d="m239.917 176.733c-43.855 0-79.251 35.497-79.251 79.267 0 18.397-14.894 33.2-33.2 33.2v94.267c70.515 0 127.466-57.077 127.466-127.467v-64.267c.001-8.284-6.73-15-15.015-15z" fill="#3c96c8"/><path d="m432.733 512v-158.533c43.708 0 79.267 35.559 79.267 79.267s-35.559 79.266-79.267 79.266z" fill="#5ac3dc"/></g></svg>