<svg id="color" height="512" viewBox="0 0 340 340" width="512" xmlns="http://www.w3.org/2000/svg"><path d="m136.271 161.052s4.729-17.452 24.707-17.452v23.739z" fill="#6b70a3"/><path d="m203.729 161.052s-4.724-17.452-24.707-17.452v23.739z" fill="#6b70a3"/><path d="m170 121.086h-11.907v45.034h11.907 11.907v-45.034z" fill="#c9ceed"/><path d="m90.269 196.057s17.143 9.88 24.963 32.559l22.546-62.2-32.222-5.389s-13.49 14.148-15.287 35.03z" fill="#6b70a3"/><path d="m153.549 272.233s-18.7 33.511-36.293 33.323c-12.019-.129-13.719-8.644-13.59-14.027a2.175 2.175 0 0 1 3.456-1.726c2.729 1.982 7.063 4.12 11.733 2.488 7.809-2.729 13.454-14.489 13.454-14.489z" fill="#6b70a3"/><path d="m118.2 210.189s-.843 1.012-2.137 2.624l-4.263 7.687a23.657 23.657 0 0 0 5.669 23.052q.227.236.462.475a39.55 39.55 0 0 0 25.885 11.6l8.214.476 14.245-10.175v-17.805h-8.649s-.01.1-.034.285a15.118 15.118 0 0 1 -20.528 11.983 36.34 36.34 0 0 1 -6.7-3.363c-5.621-3.695-7.142-11.461-2.9-16.684q.251-.309.53-.616z" fill="#c9ceed"/><path d="m125.155 228.8a10.9 10.9 0 0 1 2.306-8.454q.251-.309.53-.616l-9.794-9.539a21.052 21.052 0 0 0 -2.3 2.487 22.86 22.86 0 0 0 -4.086 7.829 15.586 15.586 0 0 0 13.344 8.293z" fill="#6b70a3"/><path d="m157.592 228.408a14.871 14.871 0 0 1 -8.033 11.324 27.034 27.034 0 0 1 -18.181 13.158 40.2 40.2 0 0 0 12.438 2.738l8.214.476 14.245-10.175v-17.806h-8.649s-.01.101-.034.285z" fill="#6b70a3"/><path d="m164.489 215.913-13.823.928a25.289 25.289 0 0 1 -15.091-3.613l-.19-.12a10.111 10.111 0 0 1 -2.536-14.753c.337-.421.709-.845 1.12-1.266l-7.123-12.973-7.629 6.253a19.826 19.826 0 0 0 -3.895 10.231 21.99 21.99 0 0 0 5.411 16.387 43.983 43.983 0 0 0 14.631 10.661 28.912 28.912 0 0 0 12.361 2.764h9.462l7.3-.8z" fill="#c9ceed"/><path d="m119.22 190.372a23.622 23.622 0 0 0 7.631 10.938 43.621 43.621 0 0 0 3.867 2.713 9.8 9.8 0 0 1 2.131-5.667c.337-.422.709-.846 1.12-1.267l-7.123-12.973a20.613 20.613 0 0 0 -7.626 6.256z" fill="#6b70a3"/><path d="m133.627 166.807a7.273 7.273 0 0 1 -1.972 1.852l-6.764 8.37a17.871 17.871 0 0 0 5.7 19.592 41.563 41.563 0 0 0 10.044 5.824 36.906 36.906 0 0 0 11.924 2.714c3.723.227 8.764.494 11.927.494v-14.165s-10.348 1.322-19.463-2.945a9.653 9.653 0 0 1 -.835-17.021q.48-.282 1.006-.54z" fill="#c9ceed"/><path d="m144.191 171.522q.48-.282 1.006-.54l-11.57-4.175a7.273 7.273 0 0 1 -1.972 1.852 15.581 15.581 0 0 0 -6.759 8.372 124.372 124.372 0 0 0 14.611 2.576 9.408 9.408 0 0 1 4.684-8.085z" fill="#6b70a3"/><path d="m100.025 155.1s-6.983 2.345-10.04 8.6c-2.967 6.066 2.6 13.014 9.035 10.973a14.33 14.33 0 0 0 5.565-3.534s.122-.142.353-.38a12.824 12.824 0 0 1 13.962-2.916c6.028 2.426 20.548 6.386 51.1 6.386v-11.8l-14.342-1.118a94.4 94.4 0 0 1 -23.138-3.611 57.53 57.53 0 0 1 -6.091-2.325c-2.978-1.307-12.688-4.648-26.404-.275z" fill="#c9ceed"/><path d="m170 251.74h-10.6v59.849c0 7.141 3.73 12.929 8.332 12.929h4.54c4.6 0 8.332-5.788 8.332-12.929v-59.849z" fill="#c9ceed"/><path d="m249.731 196.057s-17.143 9.88-24.963 32.559l-22.546-62.2 32.222-5.389s13.49 14.148 15.287 35.03z" fill="#6b70a3"/><path d="m186.451 272.233s18.7 33.511 36.293 33.323c12.019-.129 13.719-8.644 13.59-14.027a2.175 2.175 0 0 0 -3.456-1.726c-2.729 1.982-7.063 4.12-11.733 2.488-7.809-2.729-13.454-14.489-13.454-14.489z" fill="#6b70a3"/><path d="m170 132.9a70.363 70.363 0 0 0 11.907-.961v-10.853h-23.814v10.854a70.363 70.363 0 0 0 11.907.96z" fill="#6b70a3"/><path d="m221.8 210.189 6.4 10.312a23.657 23.657 0 0 1 -5.669 23.052q-.227.236-.462.475a39.55 39.55 0 0 1 -25.885 11.6l-8.214.476-14.245-10.175v-17.806h8.649s.01.1.034.285a15.118 15.118 0 0 0 20.528 11.983 36.34 36.34 0 0 0 6.7-3.363c5.621-3.695 7.142-11.461 2.9-16.684q-.25-.309-.53-.616z" fill="#c9ceed"/><path d="m190.441 239.732a14.869 14.869 0 0 1 -8.033-11.324c-.024-.184-.034-.285-.034-.285h-8.649v17.806l14.245 10.171 8.214-.476a40.2 40.2 0 0 0 12.438-2.738 27.034 27.034 0 0 1 -18.181-13.154z" fill="#6b70a3"/><path d="m228.188 220.5a22.865 22.865 0 0 0 -4.086-7.828 21.052 21.052 0 0 0 -2.3-2.487l-9.794 9.539q.279.307.53.616a11.047 11.047 0 0 1 1.73 10.787c8.972-1.07 13.783-10.355 13.92-10.627z" fill="#6b70a3"/><path d="m175.511 215.913 13.823.928a25.289 25.289 0 0 0 15.091-3.613l.19-.12a10.111 10.111 0 0 0 2.536-14.753c-.337-.421-.709-.845-1.12-1.266l7.123-12.973 7.629 6.253a19.826 19.826 0 0 1 3.9 10.231 21.99 21.99 0 0 1 -5.411 16.387 43.983 43.983 0 0 1 -14.631 10.661 28.912 28.912 0 0 1 -12.361 2.764h-5.25l-11.519-.954z" fill="#c9ceed"/><path d="m213.154 184.116-7.123 12.973c.411.421.783.845 1.12 1.267a9.8 9.8 0 0 1 2.131 5.667 43.413 43.413 0 0 0 3.867-2.713 23.62 23.62 0 0 0 7.631-10.939 20.616 20.616 0 0 0 -7.626-6.255z" fill="#6b70a3"/><path d="m206.373 166.807a7.273 7.273 0 0 0 1.972 1.852l6.848 8.621a17.876 17.876 0 0 1 -5.787 19.341 41.563 41.563 0 0 1 -10.044 5.824 36.906 36.906 0 0 1 -11.924 2.714c-3.723.227-8.764.494-11.927.494v-14.165s10.348 1.322 19.463-2.945a9.653 9.653 0 0 0 .835-17.021q-.48-.282-1.006-.54z" fill="#c9ceed"/><path d="m208.345 168.659a7.273 7.273 0 0 1 -1.972-1.852l-11.57 4.175q.525.258 1.006.54a9.427 9.427 0 0 1 4.688 8.357 124.289 124.289 0 0 0 14.7-2.6 15.591 15.591 0 0 0 -6.852-8.62z" fill="#6b70a3"/><path d="m239.975 155.368s6.983 2.346 10.04 8.6c2.967 6.066-2.6 13.014-9.035 10.973a14.33 14.33 0 0 1 -5.565-3.534s-.122-.143-.353-.38a12.824 12.824 0 0 0 -13.962-2.916c-6.028 2.426-20.548 6.386-51.1 6.386v-11.825l14.094-1.081a94.71 94.71 0 0 0 23.386-3.623 57.53 57.53 0 0 0 6.091-2.325c2.978-1.303 12.688-4.643 26.404-.275z" fill="#c9ceed"/><path d="m207.942 63.648-.634-3.326a51.19 51.19 0 0 1 -.811-6.669c-.526-9.2-4.706-38.171-36.5-38.171-31.717 0-35.951 28.837-36.493 38.106a52.361 52.361 0 0 1 -.815 6.734l-.627 3.29a11.316 11.316 0 0 0 8.324 13.17c.084.02.168.044.254.059 6.938 1.221 8.763 6.177 9.242 8.8a4.119 4.119 0 0 0 1.888 2.8 30.558 30.558 0 0 0 4.572 2.245 37.042 37.042 0 0 0 27.309 0 30.69 30.69 0 0 0 4.54-2.225 4.083 4.083 0 0 0 1.9-2.858c.446-2.786 2.219-8.112 9.247-8.749a1.034 1.034 0 0 0 .144-.033 11.475 11.475 0 0 0 8.46-13.173z" fill="#c9ceed"/><path d="m163.145 50.416c.075.22.146.45.21.691a10.242 10.242 0 0 1 -3.166 10.181c-1.066.961-2.313 2.162-3.594 3.562a7.466 7.466 0 0 1 -10.558.423l-.162-.151a10.923 10.923 0 0 1 -.35-15.772c2.243-2.158 5.774-3.865 11.315-3.551a7.025 7.025 0 0 1 6.305 4.617z" fill="#6b70a3"/><path d="m176.855 50.416c-.075.22-.146.45-.21.691a10.242 10.242 0 0 0 3.166 10.181c1.066.961 2.313 2.162 3.594 3.562a7.466 7.466 0 0 0 10.558.423l.162-.151a10.923 10.923 0 0 0 .35-15.772c-2.243-2.158-5.774-3.865-11.315-3.551a7.025 7.025 0 0 0 -6.305 4.617z" fill="#6b70a3"/><path d="m105.469 183.342a14.521 14.521 0 0 1 -6.166 13.24c-2.844 2.083-6.241 6.383-7.679 15.235 0 0-7.579 34.623-11.147 67.128a29.854 29.854 0 0 0 1.576 13.605c.267.722.527 1.5.763 2.32 3.89 13.524-12.334 24.2-22.721 14.706-4.147-3.791-5.906-10.088.25-20.537a24.042 24.042 0 0 0 3.079-11.455 214.846 214.846 0 0 1 10.728-59.423 50.532 50.532 0 0 0 2.132-24.283c-1.667-10.079-.853-23.246 15.34-21.793 0 0 12.533-.07 13.845 11.257z" fill="#c9ceed"/><path d="m234.531 183.342a14.521 14.521 0 0 0 6.166 13.24c2.844 2.083 6.241 6.383 7.679 15.235 0 0 7.579 34.623 11.147 67.128a29.854 29.854 0 0 1 -1.576 13.605c-.267.722-.527 1.5-.763 2.32-3.89 13.524 12.334 24.2 22.721 14.706 4.147-3.791 5.906-10.088-.25-20.537a24.042 24.042 0 0 1 -3.079-11.455 214.846 214.846 0 0 0 -10.728-59.423 50.532 50.532 0 0 1 -2.132-24.283c1.667-10.079.853-23.246-15.34-21.793 0 0-12.533-.07-13.845 11.257z" fill="#c9ceed"/><g fill="#6b70a3"><path d="m184.094 161.59a121.4 121.4 0 0 1 -14.094-.19v13.094c6.786 0 12.776-.2 18.063-.527.288-5.951-1.685-9.867-3.969-12.377z"/><path d="m185.171 204.594v-6.775q0-3.282.253-6.552a41.484 41.484 0 0 1 -9.913.22v14.166c2.56 0 6.342-.175 9.668-.362-.002-.233-.008-.465-.008-.697z"/><path d="m185.76 216.601-10.249-.688v14.499h11.519z"/><path d="m155.658 161.307c-2.254 2.582-4.149 6.518-3.94 12.374 5.341.339 11.4.541 18.282.541v-13.094a121.6 121.6 0 0 1 -14.342.179z"/><path d="m155.022 204.594v-6.775q0-3.282-.254-6.552a41.484 41.484 0 0 0 9.913.22v14.166c-2.56 0-6.342-.175-9.667-.362.001-.233.008-.465.008-.697z"/><path d="m154.432 216.601 10.249-.688v14.499h-11.518z"/><path d="m180.6 251.74h-21.2v25.947c.716-.842 1.406-1.695 2.038-2.569 3.1-4.289 14.027-4.289 17.128 0 .632.874 1.321 1.726 2.038 2.569z"/></g><path d="m233.017 256.478-.012-.032a2.169 2.169 0 0 0 -3.927-.238 34.408 34.408 0 0 1 -9.367 10.438c-5.943 4.557-14.883 4.03-20.484-.942a45.275 45.275 0 0 1 -5.72-6.167 60.843 60.843 0 0 0 -5.462-6.254 57.5 57.5 0 0 0 -4.754-4.221 15.679 15.679 0 0 1 -6.016-12.384v-44.678a36.542 36.542 0 0 1 2.159-12.372l.163-.452a16.878 16.878 0 0 0 -.5-12.955c-1.619-3.4-4.389-6.553-9.1-6.553-4.723 0-7.5 3.18-9.112 6.588a16.861 16.861 0 0 0 -.486 12.916l.163.454a36.57 36.57 0 0 1 2.16 12.381v44.672a15.663 15.663 0 0 1 -6.006 12.376 56.055 56.055 0 0 0 -4.395 3.869 62.79 62.79 0 0 0 -5.87 6.664 45.2 45.2 0 0 1 -5.681 6.117c-5.6 4.972-14.541 5.5-20.484.942a34.408 34.408 0 0 1 -9.367-10.438 2.169 2.169 0 0 0 -3.927.238l-.012.032c-3.444 9.689-.142 14.872 4.478 19.547a32.187 32.187 0 0 0 12.931 7.559 22.073 22.073 0 0 0 18.771-2.439 43.268 43.268 0 0 0 11.79-10.715 37.93 37.93 0 0 1 10.327-10.021 8.868 8.868 0 0 1 9.44 0 37.93 37.93 0 0 1 10.327 10.021 43.268 43.268 0 0 0 11.79 10.715 22.073 22.073 0 0 0 18.771 2.439 32.187 32.187 0 0 0 12.931-7.559c4.623-4.676 7.925-9.859 4.481-19.548z" fill="#c9ceed"/><path d="m175.194 69.079c-.337-1.916-1.27-5.568-3.849-7.834a1.71 1.71 0 0 0 -2.272 0c-2.578 2.266-3.511 5.918-3.849 7.834a1.641 1.641 0 0 0 2.118 1.861 4.511 4.511 0 0 0 2.345-2.091.607.607 0 0 1 1.045 0 4.511 4.511 0 0 0 2.345 2.091 1.64 1.64 0 0 0 2.117-1.861z" fill="#6b70a3"/><g fill="#c9ceed"><path d="m169.99 118.425a26.526 26.526 0 0 1 -20.856-9.529 2.565 2.565 0 0 0 -4.5 2 9.322 9.322 0 0 0 1.468 4.355c3.61 5.588 10.561 11.3 23.889 11.3s20.279-5.711 23.889-11.3a9.288 9.288 0 0 0 1.307-3.2 2.584 2.584 0 0 0 -4.28-2.56 28.8 28.8 0 0 1 -20.917 8.934z"/><path d="m157.952 101.427c.851.373 1.758.728 2.717 1.048a1.119 1.119 0 0 0 1.471-1.058v-5.272a1.107 1.107 0 0 0 -.823-1.071c-.828-.223-1.687-.479-2.565-.77a1.109 1.109 0 0 0 -1.452 1.056v5.05a1.106 1.106 0 0 0 .652 1.017z"/><path d="m153.545 92.173c-.7-.346-1.386-.717-2.064-1.119a1.172 1.172 0 0 0 -1.778 1.017l.034 2.587a3.476 3.476 0 0 0 1.344 2.711c.337.261.736.558 1.194.876a1.248 1.248 0 0 0 1.965-1.017v-3.944a1.241 1.241 0 0 0 -.695-1.111z"/><path d="m182.005 101.427c-.85.373-1.757.728-2.717 1.048a1.119 1.119 0 0 1 -1.47-1.058v-5.272a1.107 1.107 0 0 1 .823-1.071c.828-.223 1.687-.479 2.564-.77a1.11 1.11 0 0 1 1.455 1.056v5.05a1.105 1.105 0 0 1 -.655 1.017z"/><path d="m173.134 96.23c-.495.078-.943.141-1.335.191a12.436 12.436 0 0 1 -3.179 0c-.393-.05-.84-.113-1.336-.191a1.339 1.339 0 0 0 -1.548 1.318v4.81a1.33 1.33 0 0 0 1.264 1.334c1.76.08 4.655.08 6.415 0a1.331 1.331 0 0 0 1.266-1.334v-4.81a1.34 1.34 0 0 0 -1.547-1.318z"/><path d="m186.413 92.173c.695-.346 1.386-.717 2.064-1.119a1.172 1.172 0 0 1 1.778 1.017l-.034 2.587a3.476 3.476 0 0 1 -1.344 2.711c-.337.261-.736.558-1.194.876a1.248 1.248 0 0 1 -1.965-1.017v-3.944a1.241 1.241 0 0 1 .695-1.111z"/><path d="m157.952 112.072c.851.373 1.758.728 2.717 1.048a1.119 1.119 0 0 0 1.471-1.058v-5.272a1.107 1.107 0 0 0 -.823-1.071c-.828-.223-1.687-.479-2.565-.77a1.11 1.11 0 0 0 -1.454 1.056v5.051a1.106 1.106 0 0 0 .654 1.016z"/><path d="m153.545 102.818c-.7-.346-1.386-.717-2.064-1.119a1.172 1.172 0 0 0 -1.778 1.017l.034 2.587a3.48 3.48 0 0 0 1.344 2.712c.337.261.736.557 1.194.875a1.248 1.248 0 0 0 1.965-1.017v-3.944a1.241 1.241 0 0 0 -.695-1.111z"/><path d="m182.005 112.072c-.85.373-1.757.728-2.717 1.048a1.118 1.118 0 0 1 -1.47-1.058v-5.272a1.107 1.107 0 0 1 .823-1.071c.828-.223 1.687-.479 2.564-.77a1.11 1.11 0 0 1 1.455 1.056v5.051a1.105 1.105 0 0 1 -.655 1.016z"/><path d="m173.134 106.875c-.495.078-.943.141-1.335.191a12.436 12.436 0 0 1 -3.179 0c-.393-.05-.84-.113-1.336-.191a1.339 1.339 0 0 0 -1.548 1.318v4.807a1.33 1.33 0 0 0 1.264 1.337c1.76.08 4.655.08 6.415 0a1.331 1.331 0 0 0 1.268-1.337v-4.81a1.34 1.34 0 0 0 -1.549-1.315z"/><path d="m186.413 102.818c.695-.346 1.386-.717 2.064-1.119a1.172 1.172 0 0 1 1.778 1.017l-.034 2.587a3.48 3.48 0 0 1 -1.344 2.712c-.337.261-.736.557-1.194.875a1.248 1.248 0 0 1 -1.965-1.017v-3.944a1.241 1.241 0 0 1 .695-1.111z"/></g></svg>